<mxfile host="app.diagrams.net" modified="2024-04-18T14:06:54.272Z" agent="Mozilla/5.0 (Windows NT 10.0; Win64; x64) AppleWebKit/537.36 (KHTML, like Gecko) Chrome/123.0.0.0 Safari/537.36" etag="s0TsK79NMkK8AfRVmiQS" version="24.2.5" type="google" pages="3">
  <diagram id="2Ar8Z4wLCR7HlNkgT3B6" name="Page-1">
    <mxGraphModel grid="1" page="1" gridSize="10" guides="1" tooltips="1" connect="1" arrows="1" fold="1" pageScale="1" pageWidth="3300" pageHeight="4681" math="0" shadow="0">
      <root>
        <mxCell id="0" />
        <mxCell id="1" parent="0" />
        <mxCell id="kqbw31sDXH4kRQQlSSI2-1" value="Restaurante" style="swimlane;fontStyle=0;align=center;verticalAlign=top;childLayout=stackLayout;horizontal=1;startSize=26;horizontalStack=0;resizeParent=1;resizeLast=0;collapsible=1;marginBottom=0;rounded=0;shadow=0;strokeWidth=1;" vertex="1" collapsed="1" parent="1">
          <mxGeometry x="520" y="206" width="160" height="26" as="geometry">
            <mxRectangle x="440" y="94" width="210" height="200" as="alternateBounds" />
          </mxGeometry>
        </mxCell>
        <mxCell id="kqbw31sDXH4kRQQlSSI2-2" value="&lt;&lt;get&gt;&gt; - nombre:String" style="text;align=left;verticalAlign=top;spacingLeft=4;spacingRight=4;overflow=hidden;rotatable=0;points=[[0,0.5],[1,0.5]];portConstraint=eastwest;rounded=0;shadow=0;html=0;" vertex="1" parent="kqbw31sDXH4kRQQlSSI2-1">
          <mxGeometry y="26" width="210" height="26" as="geometry" />
        </mxCell>
        <mxCell id="v0S3m2ecOAjyxFvO2GLy-2" value="&lt;&lt;get&gt;&gt; - chefs_contratados" style="text;align=left;verticalAlign=top;spacingLeft=4;spacingRight=4;overflow=hidden;rotatable=0;points=[[0,0.5],[1,0.5]];portConstraint=eastwest;" vertex="1" parent="kqbw31sDXH4kRQQlSSI2-1">
          <mxGeometry y="52" width="210" height="26" as="geometry" />
        </mxCell>
        <mxCell id="kqbw31sDXH4kRQQlSSI2-3" value="- cocina: Cocina" style="text;align=left;verticalAlign=top;spacingLeft=4;spacingRight=4;overflow=hidden;rotatable=0;points=[[0,0.5],[1,0.5]];portConstraint=eastwest;rounded=0;shadow=0;html=0;" vertex="1" parent="kqbw31sDXH4kRQQlSSI2-1">
          <mxGeometry y="78" width="210" height="26" as="geometry" />
        </mxCell>
        <mxCell id="kqbw31sDXH4kRQQlSSI2-4" value="" style="line;html=1;strokeWidth=1;align=left;verticalAlign=middle;spacingTop=-1;spacingLeft=3;spacingRight=3;rotatable=0;labelPosition=right;points=[];portConstraint=eastwest;" vertex="1" parent="kqbw31sDXH4kRQQlSSI2-1">
          <mxGeometry y="104" width="210" height="8" as="geometry" />
        </mxCell>
        <mxCell id="kqbw31sDXH4kRQQlSSI2-5" value="+ contratar_chef(p_chef)" style="text;align=left;verticalAlign=top;spacingLeft=4;spacingRight=4;overflow=hidden;rotatable=0;points=[[0,0.5],[1,0.5]];portConstraint=eastwest;" vertex="1" parent="kqbw31sDXH4kRQQlSSI2-1">
          <mxGeometry y="112" width="210" height="26" as="geometry" />
        </mxCell>
        <mxCell id="kqbw31sDXH4kRQQlSSI2-7" value="+ listar_chefs()" style="text;align=left;verticalAlign=top;spacingLeft=4;spacingRight=4;overflow=hidden;rotatable=0;points=[[0,0.5],[1,0.5]];portConstraint=eastwest;" vertex="1" parent="kqbw31sDXH4kRQQlSSI2-1">
          <mxGeometry y="138" width="210" height="26" as="geometry" />
        </mxCell>
        <mxCell id="rrcID_v41A2miuOMxZAo-1" value="Chef" style="swimlane;fontStyle=0;align=center;verticalAlign=top;childLayout=stackLayout;horizontal=1;startSize=26;horizontalStack=0;resizeParent=1;resizeLast=0;collapsible=1;marginBottom=0;rounded=0;shadow=0;strokeWidth=1;" vertex="1" collapsed="1" parent="1">
          <mxGeometry x="800" y="330" width="160" height="26" as="geometry">
            <mxRectangle x="770" y="440" width="230" height="138" as="alternateBounds" />
          </mxGeometry>
        </mxCell>
        <mxCell id="vxrg2zfMj63Odf8F54z9-1" value="&lt;&lt;get&gt;&gt;Â  - nombre" style="text;align=left;verticalAlign=top;spacingLeft=4;spacingRight=4;overflow=hidden;rotatable=0;points=[[0,0.5],[1,0.5]];portConstraint=eastwest;" vertex="1" parent="rrcID_v41A2miuOMxZAo-1">
          <mxGeometry y="26" width="230" height="26" as="geometry" />
        </mxCell>
        <mxCell id="_IdGFjwHKnPL7USoqD4H-1" value="- restaurantes_trabajo: List" style="text;align=left;verticalAlign=top;spacingLeft=4;spacingRight=4;overflow=hidden;rotatable=0;points=[[0,0.5],[1,0.5]];portConstraint=eastwest;rounded=0;shadow=0;html=0;" vertex="1" parent="rrcID_v41A2miuOMxZAo-1">
          <mxGeometry y="52" width="230" height="26" as="geometry" />
        </mxCell>
        <mxCell id="rrcID_v41A2miuOMxZAo-3" value="" style="line;html=1;strokeWidth=1;align=left;verticalAlign=middle;spacingTop=-1;spacingLeft=3;spacingRight=3;rotatable=0;labelPosition=right;points=[];portConstraint=eastwest;" vertex="1" parent="rrcID_v41A2miuOMxZAo-1">
          <mxGeometry y="78" width="230" height="8" as="geometry" />
        </mxCell>
        <mxCell id="uwINRwgmfWBXJqWsQT2F-1" value="+ anotarse_restaurante(p_restaurante)" style="text;align=left;verticalAlign=top;spacingLeft=4;spacingRight=4;overflow=hidden;rotatable=0;points=[[0,0.5],[1,0.5]];portConstraint=eastwest;" vertex="1" parent="rrcID_v41A2miuOMxZAo-1">
          <mxGeometry y="86" width="230" height="26" as="geometry" />
        </mxCell>
        <mxCell id="v0S3m2ecOAjyxFvO2GLy-1" value="Cocina" style="swimlane;fontStyle=0;align=center;verticalAlign=top;childLayout=stackLayout;horizontal=1;startSize=26;horizontalStack=0;resizeParent=1;resizeLast=0;collapsible=1;marginBottom=0;rounded=0;shadow=0;strokeWidth=1;" vertex="1" collapsed="1" parent="1">
          <mxGeometry x="805" y="206" width="160" height="26" as="geometry">
            <mxRectangle x="760" y="154.5" width="250" height="129" as="alternateBounds" />
          </mxGeometry>
        </mxCell>
        <mxCell id="24eIOQndguOpSDY8K5fC-4" value="- lista_chefs: List" style="text;align=left;verticalAlign=top;spacingLeft=4;spacingRight=4;overflow=hidden;rotatable=0;points=[[0,0.5],[1,0.5]];portConstraint=eastwest;" vertex="1" parent="v0S3m2ecOAjyxFvO2GLy-1">
          <mxGeometry y="26" width="250" height="26" as="geometry" />
        </mxCell>
        <mxCell id="v0S3m2ecOAjyxFvO2GLy-5" value="" style="line;html=1;strokeWidth=1;align=left;verticalAlign=middle;spacingTop=-1;spacingLeft=3;spacingRight=3;rotatable=0;labelPosition=right;points=[];portConstraint=eastwest;" vertex="1" parent="v0S3m2ecOAjyxFvO2GLy-1">
          <mxGeometry y="52" width="250" height="8" as="geometry" />
        </mxCell>
        <mxCell id="v0S3m2ecOAjyxFvO2GLy-6" value="+ agregar_chef(p_chef)" style="text;align=left;verticalAlign=top;spacingLeft=4;spacingRight=4;overflow=hidden;rotatable=0;points=[[0,0.5],[1,0.5]];portConstraint=eastwest;" vertex="1" parent="v0S3m2ecOAjyxFvO2GLy-1">
          <mxGeometry y="60" width="250" height="26" as="geometry" />
        </mxCell>
      </root>
    </mxGraphModel>
  </diagram>
  <diagram id="h2Y-zRS60Zs-LXo5vk2k" name="Page-2">
    <mxGraphModel grid="1" page="1" gridSize="10" guides="1" tooltips="1" connect="1" arrows="1" fold="1" pageScale="1" pageWidth="3300" pageHeight="4681" math="0" shadow="0">
      <root>
        <mxCell id="0" />
        <mxCell id="1" parent="0" />
        <mxCell id="NKIwW6y6Am9BhSMmX3_2-1" value="Restaurante" style="swimlane;fontStyle=0;align=center;verticalAlign=top;childLayout=stackLayout;horizontal=1;startSize=26;horizontalStack=0;resizeParent=1;resizeLast=0;collapsible=1;marginBottom=0;rounded=0;shadow=0;strokeWidth=1;" collapsed="1" vertex="1" parent="1">
          <mxGeometry x="450" y="154.5" width="160" height="26" as="geometry">
            <mxRectangle x="440" y="94" width="210" height="200" as="alternateBounds" />
          </mxGeometry>
        </mxCell>
        <mxCell id="NKIwW6y6Am9BhSMmX3_2-2" value="&lt;&lt;get&gt;&gt; - nombre:String" style="text;align=left;verticalAlign=top;spacingLeft=4;spacingRight=4;overflow=hidden;rotatable=0;points=[[0,0.5],[1,0.5]];portConstraint=eastwest;rounded=0;shadow=0;html=0;" vertex="1" parent="NKIwW6y6Am9BhSMmX3_2-1">
          <mxGeometry y="26" width="210" height="26" as="geometry" />
        </mxCell>
        <mxCell id="NKIwW6y6Am9BhSMmX3_2-3" value="&lt;&lt;get&gt;&gt; - chefs_contratados" style="text;align=left;verticalAlign=top;spacingLeft=4;spacingRight=4;overflow=hidden;rotatable=0;points=[[0,0.5],[1,0.5]];portConstraint=eastwest;" vertex="1" parent="NKIwW6y6Am9BhSMmX3_2-1">
          <mxGeometry y="52" width="210" height="26" as="geometry" />
        </mxCell>
        <mxCell id="NKIwW6y6Am9BhSMmX3_2-4" value="- cocina: Cocina" style="text;align=left;verticalAlign=top;spacingLeft=4;spacingRight=4;overflow=hidden;rotatable=0;points=[[0,0.5],[1,0.5]];portConstraint=eastwest;rounded=0;shadow=0;html=0;" vertex="1" parent="NKIwW6y6Am9BhSMmX3_2-1">
          <mxGeometry y="78" width="210" height="26" as="geometry" />
        </mxCell>
        <mxCell id="NKIwW6y6Am9BhSMmX3_2-5" value="" style="line;html=1;strokeWidth=1;align=left;verticalAlign=middle;spacingTop=-1;spacingLeft=3;spacingRight=3;rotatable=0;labelPosition=right;points=[];portConstraint=eastwest;" vertex="1" parent="NKIwW6y6Am9BhSMmX3_2-1">
          <mxGeometry y="104" width="210" height="8" as="geometry" />
        </mxCell>
        <mxCell id="NKIwW6y6Am9BhSMmX3_2-6" value="+ contratar_chef(p_chef)" style="text;align=left;verticalAlign=top;spacingLeft=4;spacingRight=4;overflow=hidden;rotatable=0;points=[[0,0.5],[1,0.5]];portConstraint=eastwest;" vertex="1" parent="NKIwW6y6Am9BhSMmX3_2-1">
          <mxGeometry y="112" width="210" height="26" as="geometry" />
        </mxCell>
        <mxCell id="NKIwW6y6Am9BhSMmX3_2-7" value="+ listar_chefs()" style="text;align=left;verticalAlign=top;spacingLeft=4;spacingRight=4;overflow=hidden;rotatable=0;points=[[0,0.5],[1,0.5]];portConstraint=eastwest;" vertex="1" parent="NKIwW6y6Am9BhSMmX3_2-1">
          <mxGeometry y="138" width="210" height="26" as="geometry" />
        </mxCell>
        <mxCell id="NKIwW6y6Am9BhSMmX3_2-8" style="edgeStyle=orthogonalEdgeStyle;rounded=0;orthogonalLoop=1;jettySize=auto;html=1;entryX=0.5;entryY=1;entryDx=0;entryDy=0;endArrow=diamondThin;endFill=0;endSize=16;" edge="1" parent="1" source="NKIwW6y6Am9BhSMmX3_2-9" target="NKIwW6y6Am9BhSMmX3_2-15">
          <mxGeometry relative="1" as="geometry" />
        </mxCell>
        <mxCell id="NKIwW6y6Am9BhSMmX3_2-9" value="Chef" style="swimlane;fontStyle=0;align=center;verticalAlign=top;childLayout=stackLayout;horizontal=1;startSize=26;horizontalStack=0;resizeParent=1;resizeLast=0;collapsible=1;marginBottom=0;rounded=0;shadow=0;strokeWidth=1;" collapsed="1" vertex="1" parent="1">
          <mxGeometry x="760" y="420" width="160" height="26" as="geometry">
            <mxRectangle x="770" y="440" width="230" height="138" as="alternateBounds" />
          </mxGeometry>
        </mxCell>
        <mxCell id="NKIwW6y6Am9BhSMmX3_2-10" value="&lt;&lt;get&gt;&gt;Â  - nombre" style="text;align=left;verticalAlign=top;spacingLeft=4;spacingRight=4;overflow=hidden;rotatable=0;points=[[0,0.5],[1,0.5]];portConstraint=eastwest;" vertex="1" parent="NKIwW6y6Am9BhSMmX3_2-9">
          <mxGeometry y="26" width="230" height="26" as="geometry" />
        </mxCell>
        <mxCell id="NKIwW6y6Am9BhSMmX3_2-11" value="- restaurantes_trabajo: List" style="text;align=left;verticalAlign=top;spacingLeft=4;spacingRight=4;overflow=hidden;rotatable=0;points=[[0,0.5],[1,0.5]];portConstraint=eastwest;rounded=0;shadow=0;html=0;" vertex="1" parent="NKIwW6y6Am9BhSMmX3_2-9">
          <mxGeometry y="52" width="230" height="26" as="geometry" />
        </mxCell>
        <mxCell id="NKIwW6y6Am9BhSMmX3_2-12" value="" style="line;html=1;strokeWidth=1;align=left;verticalAlign=middle;spacingTop=-1;spacingLeft=3;spacingRight=3;rotatable=0;labelPosition=right;points=[];portConstraint=eastwest;" vertex="1" parent="NKIwW6y6Am9BhSMmX3_2-9">
          <mxGeometry y="78" width="230" height="8" as="geometry" />
        </mxCell>
        <mxCell id="NKIwW6y6Am9BhSMmX3_2-13" value="+ anotarse_restaurante(p_restaurante)" style="text;align=left;verticalAlign=top;spacingLeft=4;spacingRight=4;overflow=hidden;rotatable=0;points=[[0,0.5],[1,0.5]];portConstraint=eastwest;" vertex="1" parent="NKIwW6y6Am9BhSMmX3_2-9">
          <mxGeometry y="86" width="230" height="26" as="geometry" />
        </mxCell>
        <mxCell id="NKIwW6y6Am9BhSMmX3_2-14" style="edgeStyle=orthogonalEdgeStyle;rounded=0;orthogonalLoop=1;jettySize=auto;html=1;entryX=1;entryY=0.5;entryDx=0;entryDy=0;endArrow=diamondThin;endFill=1;endSize=15;" edge="1" parent="1" source="NKIwW6y6Am9BhSMmX3_2-15" target="NKIwW6y6Am9BhSMmX3_2-6">
          <mxGeometry relative="1" as="geometry">
            <mxPoint x="660" y="220" as="targetPoint" />
          </mxGeometry>
        </mxCell>
        <mxCell id="NKIwW6y6Am9BhSMmX3_2-15" value="Cocina" style="swimlane;fontStyle=0;align=center;verticalAlign=top;childLayout=stackLayout;horizontal=1;startSize=26;horizontalStack=0;resizeParent=1;resizeLast=0;collapsible=1;marginBottom=0;rounded=0;shadow=0;strokeWidth=1;" collapsed="1" vertex="1" parent="1">
          <mxGeometry x="760" y="154.5" width="160" height="26" as="geometry">
            <mxRectangle x="760" y="154.5" width="250" height="129" as="alternateBounds" />
          </mxGeometry>
        </mxCell>
        <mxCell id="NKIwW6y6Am9BhSMmX3_2-16" value="- lista_chefs: List" style="text;align=left;verticalAlign=top;spacingLeft=4;spacingRight=4;overflow=hidden;rotatable=0;points=[[0,0.5],[1,0.5]];portConstraint=eastwest;" vertex="1" parent="NKIwW6y6Am9BhSMmX3_2-15">
          <mxGeometry y="26" width="250" height="26" as="geometry" />
        </mxCell>
        <mxCell id="NKIwW6y6Am9BhSMmX3_2-17" value="" style="line;html=1;strokeWidth=1;align=left;verticalAlign=middle;spacingTop=-1;spacingLeft=3;spacingRight=3;rotatable=0;labelPosition=right;points=[];portConstraint=eastwest;" vertex="1" parent="NKIwW6y6Am9BhSMmX3_2-15">
          <mxGeometry y="52" width="250" height="8" as="geometry" />
        </mxCell>
        <mxCell id="NKIwW6y6Am9BhSMmX3_2-18" value="+ agregar_chef(p_chef)" style="text;align=left;verticalAlign=top;spacingLeft=4;spacingRight=4;overflow=hidden;rotatable=0;points=[[0,0.5],[1,0.5]];portConstraint=eastwest;" vertex="1" parent="NKIwW6y6Am9BhSMmX3_2-15">
          <mxGeometry y="60" width="250" height="26" as="geometry" />
        </mxCell>
        <mxCell id="NKIwW6y6Am9BhSMmX3_2-19" style="edgeStyle=orthogonalEdgeStyle;rounded=0;orthogonalLoop=1;jettySize=auto;html=1;entryX=0.5;entryY=1;entryDx=0;entryDy=0;endArrow=none;endFill=0;endSize=15;" edge="1" parent="1" source="NKIwW6y6Am9BhSMmX3_2-11" target="NKIwW6y6Am9BhSMmX3_2-1">
          <mxGeometry relative="1" as="geometry" />
        </mxCell>
        <mxCell id="qky-__SYvPSR1UtiBa2E-1" value="trabaja en" style="edgeLabel;html=1;align=center;verticalAlign=middle;resizable=0;points=[];" connectable="0" vertex="1" parent="NKIwW6y6Am9BhSMmX3_2-19">
          <mxGeometry x="0.5755" y="-1" relative="1" as="geometry">
            <mxPoint x="-1" y="17" as="offset" />
          </mxGeometry>
        </mxCell>
      </root>
    </mxGraphModel>
  </diagram>
  <diagram id="XyaIvGz9wbhi7YTzP_20" name="Page-3">
    <mxGraphModel grid="1" page="1" gridSize="10" guides="1" tooltips="1" connect="1" arrows="1" fold="1" pageScale="1" pageWidth="3300" pageHeight="4681" math="0" shadow="0">
      <root>
        <mxCell id="0" />
        <mxCell id="1" parent="0" />
        <mxCell id="BNUtQ_svs0sCkjb3jutr-1" value="Restaurante" style="swimlane;fontStyle=0;align=center;verticalAlign=top;childLayout=stackLayout;horizontal=1;startSize=26;horizontalStack=0;resizeParent=1;resizeLast=0;collapsible=1;marginBottom=0;rounded=0;shadow=0;strokeWidth=1;" vertex="1" parent="1">
          <mxGeometry x="450" y="154.5" width="210" height="200" as="geometry">
            <mxRectangle x="450" y="154.5" width="160" height="26" as="alternateBounds" />
          </mxGeometry>
        </mxCell>
        <mxCell id="BNUtQ_svs0sCkjb3jutr-2" value="&lt;&lt;get&gt;&gt; - nombre:String" style="text;align=left;verticalAlign=top;spacingLeft=4;spacingRight=4;overflow=hidden;rotatable=0;points=[[0,0.5],[1,0.5]];portConstraint=eastwest;rounded=0;shadow=0;html=0;" vertex="1" parent="BNUtQ_svs0sCkjb3jutr-1">
          <mxGeometry y="26" width="210" height="26" as="geometry" />
        </mxCell>
        <mxCell id="BNUtQ_svs0sCkjb3jutr-3" value="&lt;&lt;get&gt;&gt; - chefs_contratados : List" style="text;align=left;verticalAlign=top;spacingLeft=4;spacingRight=4;overflow=hidden;rotatable=0;points=[[0,0.5],[1,0.5]];portConstraint=eastwest;" vertex="1" parent="BNUtQ_svs0sCkjb3jutr-1">
          <mxGeometry y="52" width="210" height="26" as="geometry" />
        </mxCell>
        <mxCell id="BNUtQ_svs0sCkjb3jutr-4" value="- cocina: Cocina" style="text;align=left;verticalAlign=top;spacingLeft=4;spacingRight=4;overflow=hidden;rotatable=0;points=[[0,0.5],[1,0.5]];portConstraint=eastwest;rounded=0;shadow=0;html=0;" vertex="1" parent="BNUtQ_svs0sCkjb3jutr-1">
          <mxGeometry y="78" width="210" height="26" as="geometry" />
        </mxCell>
        <mxCell id="BNUtQ_svs0sCkjb3jutr-5" value="" style="line;html=1;strokeWidth=1;align=left;verticalAlign=middle;spacingTop=-1;spacingLeft=3;spacingRight=3;rotatable=0;labelPosition=right;points=[];portConstraint=eastwest;" vertex="1" parent="BNUtQ_svs0sCkjb3jutr-1">
          <mxGeometry y="104" width="210" height="8" as="geometry" />
        </mxCell>
        <mxCell id="BNUtQ_svs0sCkjb3jutr-6" value="+ contratar_chef(p_chef : Chef)" style="text;align=left;verticalAlign=top;spacingLeft=4;spacingRight=4;overflow=hidden;rotatable=0;points=[[0,0.5],[1,0.5]];portConstraint=eastwest;" vertex="1" parent="BNUtQ_svs0sCkjb3jutr-1">
          <mxGeometry y="112" width="210" height="26" as="geometry" />
        </mxCell>
        <mxCell id="BNUtQ_svs0sCkjb3jutr-7" value="+ listar_chefs()" style="text;align=left;verticalAlign=top;spacingLeft=4;spacingRight=4;overflow=hidden;rotatable=0;points=[[0,0.5],[1,0.5]];portConstraint=eastwest;" vertex="1" parent="BNUtQ_svs0sCkjb3jutr-1">
          <mxGeometry y="138" width="210" height="26" as="geometry" />
        </mxCell>
        <mxCell id="BNUtQ_svs0sCkjb3jutr-8" style="edgeStyle=orthogonalEdgeStyle;rounded=0;orthogonalLoop=1;jettySize=auto;html=1;entryX=0.5;entryY=1;entryDx=0;entryDy=0;endArrow=diamondThin;endFill=0;endSize=16;" edge="1" parent="1" source="BNUtQ_svs0sCkjb3jutr-9" target="BNUtQ_svs0sCkjb3jutr-15">
          <mxGeometry relative="1" as="geometry" />
        </mxCell>
        <mxCell id="BNUtQ_svs0sCkjb3jutr-9" value="Chef" style="swimlane;fontStyle=0;align=center;verticalAlign=top;childLayout=stackLayout;horizontal=1;startSize=26;horizontalStack=0;resizeParent=1;resizeLast=0;collapsible=1;marginBottom=0;rounded=0;shadow=0;strokeWidth=1;" vertex="1" parent="1">
          <mxGeometry x="760" y="450" width="230" height="138" as="geometry">
            <mxRectangle x="760" y="420" width="160" height="26" as="alternateBounds" />
          </mxGeometry>
        </mxCell>
        <mxCell id="BNUtQ_svs0sCkjb3jutr-10" value="&lt;&lt;get&gt;&gt;Â  - nombre" style="text;align=left;verticalAlign=top;spacingLeft=4;spacingRight=4;overflow=hidden;rotatable=0;points=[[0,0.5],[1,0.5]];portConstraint=eastwest;" vertex="1" parent="BNUtQ_svs0sCkjb3jutr-9">
          <mxGeometry y="26" width="230" height="26" as="geometry" />
        </mxCell>
        <mxCell id="BNUtQ_svs0sCkjb3jutr-11" value="- restaurantes_trabajo: List" style="text;align=left;verticalAlign=top;spacingLeft=4;spacingRight=4;overflow=hidden;rotatable=0;points=[[0,0.5],[1,0.5]];portConstraint=eastwest;rounded=0;shadow=0;html=0;" vertex="1" parent="BNUtQ_svs0sCkjb3jutr-9">
          <mxGeometry y="52" width="230" height="26" as="geometry" />
        </mxCell>
        <mxCell id="BNUtQ_svs0sCkjb3jutr-12" value="" style="line;html=1;strokeWidth=1;align=left;verticalAlign=middle;spacingTop=-1;spacingLeft=3;spacingRight=3;rotatable=0;labelPosition=right;points=[];portConstraint=eastwest;" vertex="1" parent="BNUtQ_svs0sCkjb3jutr-9">
          <mxGeometry y="78" width="230" height="8" as="geometry" />
        </mxCell>
        <mxCell id="BNUtQ_svs0sCkjb3jutr-13" value="+ anotarse_restaurante(p_restaurante)" style="text;align=left;verticalAlign=top;spacingLeft=4;spacingRight=4;overflow=hidden;rotatable=0;points=[[0,0.5],[1,0.5]];portConstraint=eastwest;" vertex="1" parent="BNUtQ_svs0sCkjb3jutr-9">
          <mxGeometry y="86" width="230" height="26" as="geometry" />
        </mxCell>
        <mxCell id="BNUtQ_svs0sCkjb3jutr-21" value="+ listar_restaurantes_trabajo()" style="text;align=left;verticalAlign=top;spacingLeft=4;spacingRight=4;overflow=hidden;rotatable=0;points=[[0,0.5],[1,0.5]];portConstraint=eastwest;" vertex="1" parent="BNUtQ_svs0sCkjb3jutr-9">
          <mxGeometry y="112" width="230" height="26" as="geometry" />
        </mxCell>
        <mxCell id="BNUtQ_svs0sCkjb3jutr-14" style="edgeStyle=orthogonalEdgeStyle;rounded=0;orthogonalLoop=1;jettySize=auto;html=1;entryX=1;entryY=0.5;entryDx=0;entryDy=0;endArrow=diamondThin;endFill=1;endSize=15;" edge="1" parent="1" source="BNUtQ_svs0sCkjb3jutr-15" target="BNUtQ_svs0sCkjb3jutr-6">
          <mxGeometry relative="1" as="geometry">
            <mxPoint x="660" y="220" as="targetPoint" />
          </mxGeometry>
        </mxCell>
        <mxCell id="BNUtQ_svs0sCkjb3jutr-15" value="Cocina" style="swimlane;fontStyle=0;align=center;verticalAlign=top;childLayout=stackLayout;horizontal=1;startSize=26;horizontalStack=0;resizeParent=1;resizeLast=0;collapsible=1;marginBottom=0;rounded=0;shadow=0;strokeWidth=1;" vertex="1" parent="1">
          <mxGeometry x="750" y="215" width="250" height="129" as="geometry">
            <mxRectangle x="760" y="154.5" width="160" height="26" as="alternateBounds" />
          </mxGeometry>
        </mxCell>
        <mxCell id="BNUtQ_svs0sCkjb3jutr-16" value="- lista_chefs: List" style="text;align=left;verticalAlign=top;spacingLeft=4;spacingRight=4;overflow=hidden;rotatable=0;points=[[0,0.5],[1,0.5]];portConstraint=eastwest;" vertex="1" parent="BNUtQ_svs0sCkjb3jutr-15">
          <mxGeometry y="26" width="250" height="26" as="geometry" />
        </mxCell>
        <mxCell id="BNUtQ_svs0sCkjb3jutr-17" value="" style="line;html=1;strokeWidth=1;align=left;verticalAlign=middle;spacingTop=-1;spacingLeft=3;spacingRight=3;rotatable=0;labelPosition=right;points=[];portConstraint=eastwest;" vertex="1" parent="BNUtQ_svs0sCkjb3jutr-15">
          <mxGeometry y="52" width="250" height="8" as="geometry" />
        </mxCell>
        <mxCell id="BNUtQ_svs0sCkjb3jutr-18" value="+ agregar_chef(p_chef : Chef)" style="text;align=left;verticalAlign=top;spacingLeft=4;spacingRight=4;overflow=hidden;rotatable=0;points=[[0,0.5],[1,0.5]];portConstraint=eastwest;" vertex="1" parent="BNUtQ_svs0sCkjb3jutr-15">
          <mxGeometry y="60" width="250" height="26" as="geometry" />
        </mxCell>
        <mxCell id="BNUtQ_svs0sCkjb3jutr-19" style="edgeStyle=orthogonalEdgeStyle;rounded=0;orthogonalLoop=1;jettySize=auto;html=1;entryX=0.5;entryY=1;entryDx=0;entryDy=0;endArrow=none;endFill=0;endSize=15;" edge="1" parent="1" source="BNUtQ_svs0sCkjb3jutr-11" target="BNUtQ_svs0sCkjb3jutr-1">
          <mxGeometry relative="1" as="geometry" />
        </mxCell>
        <mxCell id="BNUtQ_svs0sCkjb3jutr-20" value="trabaja en" style="edgeLabel;html=1;align=center;verticalAlign=middle;resizable=0;points=[];" connectable="0" vertex="1" parent="BNUtQ_svs0sCkjb3jutr-19">
          <mxGeometry x="0.5755" y="-1" relative="1" as="geometry">
            <mxPoint x="-1" y="17" as="offset" />
          </mxGeometry>
        </mxCell>
      </root>
    </mxGraphModel>
  </diagram>
</mxfile>
